<svg xmlns="http://www.w3.org/2000/svg" shape-rendering="geometricPrecision" text-rendering="geometricPrecision" width='25px' height= "25px" image-rendering="optimizeQuality" fill-rule="evenodd" clip-rule="evenodd" viewBox="0 0 356 512.365"><path fill-rule="nonzero" d="M194.009 452.711V302.015l-.005-.28L317.937 170.92c13.391-13.875 22.509-29.047 28.475-45.147 5.706-15.395 8.518-31.626 9.457-48.38l.131-2.038V0h-32.019c0 25.122-.42 50.548.005 75.641-.774 13.603-3.029 26.704-7.588 39.001-4.544 12.263-11.445 23.766-21.531 34.205L178 272.2 61.132 148.847c-10.086-10.439-16.987-21.942-21.531-34.205-4.559-12.297-6.814-25.398-7.588-39.001.426-25.093.005-50.519.005-75.641H0v75.355l.13 2.038c.939 16.754 3.751 32.985 9.457 48.38 5.967 16.1 15.084 31.272 28.475 45.147l123.933 130.815-.004.28v150.696l-57.42-67.926c-5.697-6.732-15.777-7.569-22.509-1.873-6.731 5.696-7.569 15.776-1.873 22.508l85.441 101.077.053.063c6.548 7.554 18.018 7.873 24.507.145l.126-.145.044-.053 85.45-101.087c5.696-6.732 4.858-16.812-1.873-22.508-6.732-5.696-16.812-4.859-22.508 1.873l-57.42 67.926z"/></svg>